<mxfile host="Electron" agent="Mozilla/5.0 (Macintosh; Intel Mac OS X 10_15_7) AppleWebKit/537.36 (KHTML, like Gecko) draw.io/26.2.2 Chrome/134.0.6998.178 Electron/35.1.2 Safari/537.36" version="26.2.2">
  <diagram name="Страница — 1" id="L4orxoe6Da8ZAyWeI6r4">
    <mxGraphModel dx="2100" dy="1128" grid="0" gridSize="10" guides="1" tooltips="1" connect="1" arrows="1" fold="1" page="0" pageScale="1" pageWidth="827" pageHeight="1169" math="0" shadow="0">
      <root>
        <mxCell id="0" />
        <mxCell id="1" parent="0" />
        <mxCell id="hHwfIYdpYpxVrflKmK46-7" style="edgeStyle=orthogonalEdgeStyle;rounded=0;orthogonalLoop=1;jettySize=auto;html=1;entryX=0;entryY=0.5;entryDx=0;entryDy=0;" edge="1" parent="1" source="hHwfIYdpYpxVrflKmK46-1" target="hHwfIYdpYpxVrflKmK46-3">
          <mxGeometry relative="1" as="geometry" />
        </mxCell>
        <mxCell id="hHwfIYdpYpxVrflKmK46-8" style="edgeStyle=orthogonalEdgeStyle;rounded=0;orthogonalLoop=1;jettySize=auto;html=1;" edge="1" parent="1" source="hHwfIYdpYpxVrflKmK46-1" target="hHwfIYdpYpxVrflKmK46-4">
          <mxGeometry relative="1" as="geometry" />
        </mxCell>
        <mxCell id="pkKlb66HXLQlT_GpJtMn-2" style="edgeStyle=orthogonalEdgeStyle;rounded=0;orthogonalLoop=1;jettySize=auto;html=1;entryX=0.5;entryY=1;entryDx=0;entryDy=0;" edge="1" parent="1" source="hHwfIYdpYpxVrflKmK46-1" target="hHwfIYdpYpxVrflKmK46-2">
          <mxGeometry relative="1" as="geometry" />
        </mxCell>
        <mxCell id="pkKlb66HXLQlT_GpJtMn-3" style="edgeStyle=orthogonalEdgeStyle;rounded=0;orthogonalLoop=1;jettySize=auto;html=1;entryX=1;entryY=0.5;entryDx=0;entryDy=0;" edge="1" parent="1" source="hHwfIYdpYpxVrflKmK46-1" target="hHwfIYdpYpxVrflKmK46-5">
          <mxGeometry relative="1" as="geometry" />
        </mxCell>
        <mxCell id="hHwfIYdpYpxVrflKmK46-1" value="Безопасность данных" style="rounded=1;whiteSpace=wrap;html=1;fillColor=#fff2cc;gradientColor=#ffd966;strokeColor=#d6b656;" vertex="1" parent="1">
          <mxGeometry x="350" y="329" width="120" height="60" as="geometry" />
        </mxCell>
        <mxCell id="pkKlb66HXLQlT_GpJtMn-34" style="edgeStyle=orthogonalEdgeStyle;rounded=0;orthogonalLoop=1;jettySize=auto;html=1;entryX=0;entryY=0.5;entryDx=0;entryDy=0;endArrow=none;startFill=0;" edge="1" parent="1" source="hHwfIYdpYpxVrflKmK46-2" target="pkKlb66HXLQlT_GpJtMn-7">
          <mxGeometry relative="1" as="geometry" />
        </mxCell>
        <mxCell id="pkKlb66HXLQlT_GpJtMn-37" style="edgeStyle=orthogonalEdgeStyle;rounded=0;orthogonalLoop=1;jettySize=auto;html=1;entryX=0;entryY=0.5;entryDx=0;entryDy=0;endArrow=none;startFill=0;" edge="1" parent="1" source="hHwfIYdpYpxVrflKmK46-2" target="pkKlb66HXLQlT_GpJtMn-8">
          <mxGeometry relative="1" as="geometry" />
        </mxCell>
        <mxCell id="pkKlb66HXLQlT_GpJtMn-40" style="edgeStyle=orthogonalEdgeStyle;rounded=0;orthogonalLoop=1;jettySize=auto;html=1;entryX=0;entryY=0.5;entryDx=0;entryDy=0;endArrow=none;startFill=0;" edge="1" parent="1" source="hHwfIYdpYpxVrflKmK46-2" target="pkKlb66HXLQlT_GpJtMn-13">
          <mxGeometry relative="1" as="geometry" />
        </mxCell>
        <mxCell id="pkKlb66HXLQlT_GpJtMn-51" style="edgeStyle=orthogonalEdgeStyle;rounded=0;orthogonalLoop=1;jettySize=auto;html=1;entryX=0;entryY=0.5;entryDx=0;entryDy=0;endArrow=none;startFill=0;" edge="1" parent="1" source="hHwfIYdpYpxVrflKmK46-2" target="pkKlb66HXLQlT_GpJtMn-12">
          <mxGeometry relative="1" as="geometry" />
        </mxCell>
        <mxCell id="hHwfIYdpYpxVrflKmK46-2" value="Публичные данные" style="rounded=1;whiteSpace=wrap;html=1;fillColor=#dae8fc;strokeColor=#6c8ebf;gradientColor=#7ea6e0;" vertex="1" parent="1">
          <mxGeometry x="350" y="194" width="120" height="60" as="geometry" />
        </mxCell>
        <mxCell id="pkKlb66HXLQlT_GpJtMn-41" style="edgeStyle=orthogonalEdgeStyle;rounded=0;orthogonalLoop=1;jettySize=auto;html=1;entryX=0;entryY=0.5;entryDx=0;entryDy=0;endArrow=none;startFill=0;" edge="1" parent="1" source="hHwfIYdpYpxVrflKmK46-3" target="pkKlb66HXLQlT_GpJtMn-16">
          <mxGeometry relative="1" as="geometry" />
        </mxCell>
        <mxCell id="pkKlb66HXLQlT_GpJtMn-42" style="edgeStyle=orthogonalEdgeStyle;rounded=0;orthogonalLoop=1;jettySize=auto;html=1;entryX=0;entryY=0.5;entryDx=0;entryDy=0;endArrow=none;startFill=0;" edge="1" parent="1" source="hHwfIYdpYpxVrflKmK46-3" target="pkKlb66HXLQlT_GpJtMn-18">
          <mxGeometry relative="1" as="geometry" />
        </mxCell>
        <mxCell id="pkKlb66HXLQlT_GpJtMn-43" style="edgeStyle=orthogonalEdgeStyle;rounded=0;orthogonalLoop=1;jettySize=auto;html=1;entryX=0;entryY=0.5;entryDx=0;entryDy=0;endArrow=none;startFill=0;" edge="1" parent="1" source="hHwfIYdpYpxVrflKmK46-3" target="pkKlb66HXLQlT_GpJtMn-14">
          <mxGeometry relative="1" as="geometry" />
        </mxCell>
        <mxCell id="pkKlb66HXLQlT_GpJtMn-44" style="edgeStyle=orthogonalEdgeStyle;rounded=0;orthogonalLoop=1;jettySize=auto;html=1;entryX=0;entryY=0.5;entryDx=0;entryDy=0;endArrow=none;startFill=0;" edge="1" parent="1" source="hHwfIYdpYpxVrflKmK46-3" target="pkKlb66HXLQlT_GpJtMn-10">
          <mxGeometry relative="1" as="geometry" />
        </mxCell>
        <mxCell id="hHwfIYdpYpxVrflKmK46-3" value="Внутренние данные" style="rounded=1;whiteSpace=wrap;html=1;fillColor=#dae8fc;strokeColor=#6c8ebf;gradientColor=#7ea6e0;" vertex="1" parent="1">
          <mxGeometry x="541" y="329" width="120" height="60" as="geometry" />
        </mxCell>
        <mxCell id="pkKlb66HXLQlT_GpJtMn-45" style="edgeStyle=orthogonalEdgeStyle;rounded=0;orthogonalLoop=1;jettySize=auto;html=1;entryX=0;entryY=0.5;entryDx=0;entryDy=0;endArrow=none;startFill=0;" edge="1" parent="1" source="hHwfIYdpYpxVrflKmK46-4" target="pkKlb66HXLQlT_GpJtMn-9">
          <mxGeometry relative="1" as="geometry" />
        </mxCell>
        <mxCell id="pkKlb66HXLQlT_GpJtMn-46" style="edgeStyle=orthogonalEdgeStyle;rounded=0;orthogonalLoop=1;jettySize=auto;html=1;entryX=0;entryY=0.5;entryDx=0;entryDy=0;endArrow=none;startFill=0;" edge="1" parent="1" source="hHwfIYdpYpxVrflKmK46-4" target="pkKlb66HXLQlT_GpJtMn-11">
          <mxGeometry relative="1" as="geometry" />
        </mxCell>
        <mxCell id="pkKlb66HXLQlT_GpJtMn-47" style="edgeStyle=orthogonalEdgeStyle;rounded=0;orthogonalLoop=1;jettySize=auto;html=1;entryX=0;entryY=0.5;entryDx=0;entryDy=0;endArrow=none;startFill=0;" edge="1" parent="1" source="hHwfIYdpYpxVrflKmK46-4" target="pkKlb66HXLQlT_GpJtMn-15">
          <mxGeometry relative="1" as="geometry" />
        </mxCell>
        <mxCell id="pkKlb66HXLQlT_GpJtMn-48" style="edgeStyle=orthogonalEdgeStyle;rounded=0;orthogonalLoop=1;jettySize=auto;html=1;entryX=0;entryY=0.5;entryDx=0;entryDy=0;endArrow=none;startFill=0;" edge="1" parent="1" source="hHwfIYdpYpxVrflKmK46-4" target="pkKlb66HXLQlT_GpJtMn-17">
          <mxGeometry relative="1" as="geometry" />
        </mxCell>
        <mxCell id="hHwfIYdpYpxVrflKmK46-4" value="Конфиденциальные данные" style="rounded=1;whiteSpace=wrap;html=1;fillColor=#dae8fc;strokeColor=#6c8ebf;gradientColor=#7ea6e0;" vertex="1" parent="1">
          <mxGeometry x="350" y="453" width="120" height="60" as="geometry" />
        </mxCell>
        <mxCell id="pkKlb66HXLQlT_GpJtMn-49" style="edgeStyle=orthogonalEdgeStyle;rounded=0;orthogonalLoop=1;jettySize=auto;html=1;endArrow=none;startFill=0;" edge="1" parent="1" source="hHwfIYdpYpxVrflKmK46-5" target="pkKlb66HXLQlT_GpJtMn-19">
          <mxGeometry relative="1" as="geometry" />
        </mxCell>
        <mxCell id="pkKlb66HXLQlT_GpJtMn-50" style="edgeStyle=orthogonalEdgeStyle;rounded=0;orthogonalLoop=1;jettySize=auto;html=1;endArrow=none;startFill=0;" edge="1" parent="1" source="hHwfIYdpYpxVrflKmK46-5" target="pkKlb66HXLQlT_GpJtMn-33">
          <mxGeometry relative="1" as="geometry" />
        </mxCell>
        <mxCell id="hHwfIYdpYpxVrflKmK46-5" value="Секретные данные" style="rounded=1;whiteSpace=wrap;html=1;fillColor=#dae8fc;strokeColor=#6c8ebf;gradientColor=#7ea6e0;" vertex="1" parent="1">
          <mxGeometry x="167" y="329" width="120" height="60" as="geometry" />
        </mxCell>
        <mxCell id="hHwfIYdpYpxVrflKmK46-10" value="Утечка данных" style="rounded=0;whiteSpace=wrap;html=1;fillColor=#f8cecc;strokeColor=#b85450;" vertex="1" parent="1">
          <mxGeometry x="-118" y="472" width="134" height="39" as="geometry" />
        </mxCell>
        <mxCell id="hHwfIYdpYpxVrflKmK46-11" value="Потеря данных" style="rounded=0;whiteSpace=wrap;html=1;fillColor=#ffe6cc;strokeColor=#d79b00;" vertex="1" parent="1">
          <mxGeometry x="-118" y="520" width="134" height="39" as="geometry" />
        </mxCell>
        <mxCell id="hHwfIYdpYpxVrflKmK46-12" value="Искажение данных" style="rounded=0;whiteSpace=wrap;html=1;fillColor=#e1d5e7;strokeColor=#9673a6;" vertex="1" parent="1">
          <mxGeometry x="-118" y="567.5" width="134" height="39" as="geometry" />
        </mxCell>
        <mxCell id="hHwfIYdpYpxVrflKmK46-13" value="Некачественные данные" style="rounded=0;whiteSpace=wrap;html=1;fillColor=#dae8fc;strokeColor=#6c8ebf;" vertex="1" parent="1">
          <mxGeometry x="-118" y="618" width="134" height="39" as="geometry" />
        </mxCell>
        <mxCell id="hHwfIYdpYpxVrflKmK46-14" value="Обесценивание данных" style="rounded=0;whiteSpace=wrap;html=1;fillColor=#f5f5f5;fontColor=#333333;strokeColor=#666666;" vertex="1" parent="1">
          <mxGeometry x="-118" y="671" width="134" height="39" as="geometry" />
        </mxCell>
        <mxCell id="pkKlb66HXLQlT_GpJtMn-7" value="данные онлайн-ветрины для подбора недвижимости" style="rounded=0;whiteSpace=wrap;html=1;fillColor=#f5f5f5;strokeColor=#666666;fontColor=#333333;" vertex="1" parent="1">
          <mxGeometry x="510" y="19" width="182" height="41" as="geometry" />
        </mxCell>
        <mxCell id="pkKlb66HXLQlT_GpJtMn-8" value="данные онлайн-тура для осмотра недвижимости" style="rounded=0;whiteSpace=wrap;html=1;fillColor=#e1d5e7;strokeColor=#9673a6;" vertex="1" parent="1">
          <mxGeometry x="510" y="73" width="182" height="41" as="geometry" />
        </mxCell>
        <mxCell id="pkKlb66HXLQlT_GpJtMn-9" value="данные онлайн-сделки для покупки недвижимости" style="rounded=0;whiteSpace=wrap;html=1;fillColor=#f8cecc;strokeColor=#b85450;" vertex="1" parent="1">
          <mxGeometry x="431" y="526" width="182" height="41" as="geometry" />
        </mxCell>
        <mxCell id="pkKlb66HXLQlT_GpJtMn-10" value="технические логи сервисов" style="rounded=0;whiteSpace=wrap;html=1;fillColor=#dae8fc;strokeColor=#6c8ebf;" vertex="1" parent="1">
          <mxGeometry x="714" y="417.25" width="182" height="41" as="geometry" />
        </mxCell>
        <mxCell id="pkKlb66HXLQlT_GpJtMn-11" value="данные по оплате услуг ЖКХ" style="rounded=0;whiteSpace=wrap;html=1;fillColor=#ffe6cc;strokeColor=#d79b00;" vertex="1" parent="1">
          <mxGeometry x="431" y="583" width="182" height="41" as="geometry" />
        </mxCell>
        <mxCell id="pkKlb66HXLQlT_GpJtMn-12" value="информация об управляющей компании" style="rounded=0;whiteSpace=wrap;html=1;fillColor=#e1d5e7;strokeColor=#9673a6;" vertex="1" parent="1">
          <mxGeometry x="510" y="130" width="182" height="41" as="geometry" />
        </mxCell>
        <mxCell id="pkKlb66HXLQlT_GpJtMn-13" value="данные капитального ремонта" style="rounded=0;whiteSpace=wrap;html=1;fillColor=#e1d5e7;strokeColor=#9673a6;" vertex="1" parent="1">
          <mxGeometry x="510" y="179.5" width="182" height="41" as="geometry" />
        </mxCell>
        <mxCell id="pkKlb66HXLQlT_GpJtMn-14" value="технические данные от управления умным домом" style="rounded=0;whiteSpace=wrap;html=1;fillColor=#ffe6cc;strokeColor=#d79b00;" vertex="1" parent="1">
          <mxGeometry x="714" y="365.25" width="182" height="41" as="geometry" />
        </mxCell>
        <mxCell id="pkKlb66HXLQlT_GpJtMn-15" value="персональные данные клиентов" style="rounded=0;whiteSpace=wrap;html=1;fillColor=#f8cecc;strokeColor=#b85450;" vertex="1" parent="1">
          <mxGeometry x="431" y="636" width="182" height="41" as="geometry" />
        </mxCell>
        <mxCell id="pkKlb66HXLQlT_GpJtMn-16" value="внутренняя управленческая документация" style="rounded=0;whiteSpace=wrap;html=1;fillColor=#f8cecc;strokeColor=#b85450;" vertex="1" parent="1">
          <mxGeometry x="714" y="259.75" width="182" height="41" as="geometry" />
        </mxCell>
        <mxCell id="pkKlb66HXLQlT_GpJtMn-17" value="финансовые данные" style="rounded=0;whiteSpace=wrap;html=1;fillColor=#f8cecc;strokeColor=#b85450;" vertex="1" parent="1">
          <mxGeometry x="431" y="689" width="182" height="41" as="geometry" />
        </mxCell>
        <mxCell id="pkKlb66HXLQlT_GpJtMn-18" value="внутренняя техническая документация" style="rounded=0;whiteSpace=wrap;html=1;fillColor=#f8cecc;strokeColor=#b85450;" vertex="1" parent="1">
          <mxGeometry x="714" y="312.75" width="182" height="41" as="geometry" />
        </mxCell>
        <mxCell id="pkKlb66HXLQlT_GpJtMn-19" value="стратегическая политика компании" style="rounded=0;whiteSpace=wrap;html=1;fillColor=#f8cecc;strokeColor=#b85450;" vertex="1" parent="1">
          <mxGeometry x="-72" y="312.75" width="182" height="41" as="geometry" />
        </mxCell>
        <mxCell id="pkKlb66HXLQlT_GpJtMn-22" style="edgeStyle=orthogonalEdgeStyle;rounded=0;orthogonalLoop=1;jettySize=auto;html=1;entryX=0;entryY=0.5;entryDx=0;entryDy=0;" edge="1" parent="1" source="pkKlb66HXLQlT_GpJtMn-20" target="hHwfIYdpYpxVrflKmK46-10">
          <mxGeometry relative="1" as="geometry" />
        </mxCell>
        <mxCell id="pkKlb66HXLQlT_GpJtMn-23" style="edgeStyle=orthogonalEdgeStyle;rounded=0;orthogonalLoop=1;jettySize=auto;html=1;entryX=0;entryY=0.5;entryDx=0;entryDy=0;" edge="1" parent="1" source="pkKlb66HXLQlT_GpJtMn-20" target="hHwfIYdpYpxVrflKmK46-11">
          <mxGeometry relative="1" as="geometry" />
        </mxCell>
        <mxCell id="pkKlb66HXLQlT_GpJtMn-24" style="edgeStyle=orthogonalEdgeStyle;rounded=0;orthogonalLoop=1;jettySize=auto;html=1;entryX=0;entryY=0.5;entryDx=0;entryDy=0;" edge="1" parent="1" source="pkKlb66HXLQlT_GpJtMn-20" target="hHwfIYdpYpxVrflKmK46-12">
          <mxGeometry relative="1" as="geometry" />
        </mxCell>
        <mxCell id="pkKlb66HXLQlT_GpJtMn-26" style="edgeStyle=orthogonalEdgeStyle;rounded=0;orthogonalLoop=1;jettySize=auto;html=1;entryX=0;entryY=0.5;entryDx=0;entryDy=0;" edge="1" parent="1" source="pkKlb66HXLQlT_GpJtMn-20" target="hHwfIYdpYpxVrflKmK46-13">
          <mxGeometry relative="1" as="geometry" />
        </mxCell>
        <mxCell id="pkKlb66HXLQlT_GpJtMn-27" style="edgeStyle=orthogonalEdgeStyle;rounded=0;orthogonalLoop=1;jettySize=auto;html=1;entryX=0;entryY=0.5;entryDx=0;entryDy=0;" edge="1" parent="1" source="pkKlb66HXLQlT_GpJtMn-20" target="hHwfIYdpYpxVrflKmK46-14">
          <mxGeometry relative="1" as="geometry" />
        </mxCell>
        <mxCell id="pkKlb66HXLQlT_GpJtMn-20" value="Риски" style="rounded=1;whiteSpace=wrap;html=1;fillColor=#fff2cc;gradientColor=#ffd966;strokeColor=#d6b656;" vertex="1" parent="1">
          <mxGeometry x="-285" y="557" width="120" height="60" as="geometry" />
        </mxCell>
        <mxCell id="pkKlb66HXLQlT_GpJtMn-28" value="- потеря доверия, ущерб репутации, штрафы и иная ответственность, потеря конкурентных преимуществ, кибератаки&amp;nbsp;" style="text;html=1;align=left;verticalAlign=middle;whiteSpace=wrap;rounded=0;" vertex="1" parent="1">
          <mxGeometry x="38" y="476.5" width="268" height="30" as="geometry" />
        </mxCell>
        <mxCell id="pkKlb66HXLQlT_GpJtMn-29" value="- введение в заблуждение, ущерб репутации" style="text;html=1;align=left;verticalAlign=middle;whiteSpace=wrap;rounded=0;" vertex="1" parent="1">
          <mxGeometry x="36" y="567.5" width="268" height="30" as="geometry" />
        </mxCell>
        <mxCell id="pkKlb66HXLQlT_GpJtMn-30" value="- введение в заблуждение, ущерб репутации" style="text;html=1;align=left;verticalAlign=middle;whiteSpace=wrap;rounded=0;" vertex="1" parent="1">
          <mxGeometry x="36" y="620.5" width="268" height="30" as="geometry" />
        </mxCell>
        <mxCell id="pkKlb66HXLQlT_GpJtMn-31" value="- потеря конкурентных преимуществ" style="text;html=1;align=left;verticalAlign=middle;whiteSpace=wrap;rounded=0;" vertex="1" parent="1">
          <mxGeometry x="38" y="671" width="268" height="30" as="geometry" />
        </mxCell>
        <mxCell id="pkKlb66HXLQlT_GpJtMn-32" value="- нарушение в стабильности работы компании" style="text;html=1;align=left;verticalAlign=middle;whiteSpace=wrap;rounded=0;" vertex="1" parent="1">
          <mxGeometry x="38" y="522.5" width="268" height="30" as="geometry" />
        </mxCell>
        <mxCell id="pkKlb66HXLQlT_GpJtMn-33" value="данные шифрования и иной защиты информации" style="rounded=0;whiteSpace=wrap;html=1;fillColor=#f8cecc;strokeColor=#b85450;" vertex="1" parent="1">
          <mxGeometry x="-72" y="361.75" width="182" height="41" as="geometry" />
        </mxCell>
      </root>
    </mxGraphModel>
  </diagram>
</mxfile>
